<svg version="1.1" id="Layer_1" xmlns="http://www.w3.org/2000/svg" xmlns:xlink="http://www.w3.org/1999/xlink" x="0px" y="0px"
	 width="50px" height="50px" viewBox="0 0 50 50" enable-background="new 0 0 50 50" xml:space="preserve">
<g>
	<g>
		<path fill="#000000" d="M21.497,21.923c-1.127,0-2.143-0.625-2.649-1.63c-0.734-1.46-0.146-3.245,1.313-3.981
			c0.413-0.207,0.873-0.317,1.331-0.317c1.127,0,2.142,0.625,2.65,1.629c0.736,1.46,0.146,3.246-1.313,3.98
			C22.417,21.813,21.955,21.923,21.497,21.923 M18.019,27.981c-0.058,0-0.114-0.002-0.172-0.004
			c-1.629-0.095-2.882-1.498-2.789-3.129c0.092-1.625,1.485-2.887,3.127-2.791c1.631,0.091,2.882,1.496,2.79,3.127
			C20.885,26.754,19.585,27.981,18.019,27.981 M21.519,34.021c-0.577,0-1.138-0.167-1.623-0.485c-0.661-0.433-1.115-1.1-1.276-1.874
			c-0.162-0.774-0.011-1.566,0.422-2.229c0.551-0.837,1.478-1.339,2.481-1.339c0.577,0,1.14,0.169,1.623,0.486
			c0.663,0.434,1.116,1.099,1.277,1.875c0.163,0.774,0.012,1.565-0.423,2.228C23.451,33.521,22.524,34.021,21.519,34.021
			 M28.508,34.007c-1.125,0-2.14-0.625-2.647-1.63c-0.357-0.706-0.416-1.509-0.168-2.262c0.247-0.752,0.775-1.361,1.481-1.718
			c0.411-0.209,0.873-0.318,1.332-0.318c1.127,0,2.142,0.625,2.648,1.631c0.734,1.459,0.146,3.244-1.313,3.98
			C29.43,33.897,28.969,34.007,28.508,34.007 M31.99,27.951c-0.059,0-0.115-0.004-0.171-0.006c-1.633-0.092-2.884-1.497-2.791-3.126
			c0.092-1.626,1.486-2.888,3.128-2.792c0.79,0.045,1.515,0.394,2.042,0.985c0.527,0.59,0.792,1.352,0.746,2.142
			C34.856,26.723,33.557,27.951,31.99,27.951 M28.478,21.909c-0.575,0-1.137-0.167-1.622-0.486
			c-1.368-0.897-1.749-2.737-0.853-4.104c0.55-0.837,1.478-1.338,2.48-1.338c0.577,0,1.139,0.168,1.622,0.485
			c1.367,0.895,1.75,2.736,0.854,4.103C30.408,21.406,29.482,21.909,28.478,21.909 M18.53,10.907
			c0.369,0.73,0.074,1.622-0.655,1.988c-0.731,0.369-1.621,0.074-1.988-0.654c-0.369-0.731-0.075-1.621,0.655-1.99
			C17.271,9.885,18.163,10.177,18.53,10.907 M9.56,23.557c0.817,0.046,1.441,0.746,1.395,1.562
			c-0.046,0.817-0.747,1.441-1.563,1.396c-0.816-0.048-1.439-0.747-1.394-1.564C8.044,24.136,8.744,23.511,9.56,23.557
			 M16.03,37.651c0.449-0.684,1.365-0.875,2.049-0.426c0.684,0.447,0.875,1.365,0.426,2.05c-0.448,0.684-1.366,0.874-2.05,0.427
			C15.771,39.252,15.582,38.335,16.03,37.651 M31.472,39.095c-0.369-0.729-0.074-1.619,0.654-1.987
			c0.733-0.368,1.622-0.074,1.989,0.654c0.369,0.73,0.074,1.622-0.656,1.988C32.73,40.119,31.84,39.826,31.472,39.095
			 M40.441,26.445c-0.818-0.046-1.44-0.746-1.394-1.562c0.046-0.818,0.745-1.442,1.562-1.395c0.816,0.045,1.442,0.745,1.396,1.563
			C41.96,25.868,41.257,26.491,40.441,26.445 M33.973,12.351c-0.448,0.684-1.366,0.875-2.05,0.427
			c-0.684-0.448-0.875-1.366-0.426-2.05c0.448-0.685,1.366-0.875,2.049-0.427C34.229,10.75,34.421,11.667,33.973,12.351
			 M15.292,6.365c0.239,0.473,0.047,1.05-0.424,1.287c-0.473,0.238-1.048,0.049-1.287-0.425c-0.238-0.471-0.048-1.049,0.424-1.286
			C14.478,5.704,15.054,5.893,15.292,6.365 M4.007,24.091c0.528,0.03,0.933,0.482,0.902,1.01s-0.483,0.934-1.01,0.901
			c-0.529-0.028-0.933-0.482-0.902-1.009C3.027,24.465,3.479,24.062,4.007,24.091 M13.716,42.727
			c0.29-0.443,0.885-0.567,1.328-0.275c0.442,0.29,0.565,0.883,0.274,1.327c-0.288,0.441-0.884,0.566-1.326,0.276
			C13.549,43.764,13.426,43.169,13.716,42.727 M34.71,43.639c-0.238-0.475-0.048-1.051,0.425-1.288
			c0.473-0.238,1.048-0.049,1.285,0.424c0.24,0.473,0.048,1.049-0.423,1.286C35.523,44.3,34.948,44.109,34.71,43.639 M45.994,25.913
			c-0.528-0.03-0.934-0.484-0.903-1.012c0.031-0.53,0.482-0.933,1.013-0.902c0.527,0.028,0.932,0.483,0.899,1.011
			C46.975,25.537,46.521,25.941,45.994,25.913 M36.287,7.275c-0.292,0.443-0.886,0.567-1.327,0.276
			c-0.442-0.291-0.566-0.884-0.276-1.327c0.29-0.442,0.884-0.566,1.326-0.274C36.452,6.239,36.576,6.833,36.287,7.275
			 M15.582,17.587c0.804,0.526,1.029,1.606,0.501,2.41c-0.526,0.805-1.607,1.031-2.412,0.501c-0.805-0.526-1.029-1.605-0.501-2.411
			C13.698,17.284,14.778,17.058,15.582,17.587 M13.869,29.451c0.859-0.434,1.907-0.087,2.34,0.771
			c0.432,0.859,0.087,1.907-0.772,2.34c-0.858,0.433-1.907,0.086-2.339-0.771C12.665,30.932,13.01,29.884,13.869,29.451
			 M23.162,36.866c0.055-0.96,0.879-1.694,1.838-1.641c0.962,0.054,1.696,0.879,1.641,1.838c-0.054,0.961-0.877,1.696-1.839,1.641
			C23.842,38.649,23.108,37.826,23.162,36.866 M34.421,32.418c-0.804-0.529-1.029-1.608-0.503-2.413
			c0.528-0.803,1.608-1.027,2.411-0.5c0.805,0.526,1.029,1.606,0.502,2.41C36.304,32.721,35.224,32.944,34.421,32.418
			 M36.133,20.552c-0.859,0.433-1.907,0.088-2.339-0.771c-0.433-0.858-0.089-1.906,0.771-2.338c0.86-0.434,1.907-0.088,2.342,0.771
			C37.338,19.072,36.992,20.12,36.133,20.552 M26.716,13.137c-0.055,0.959-0.879,1.695-1.841,1.64
			c-0.96-0.055-1.695-0.877-1.64-1.838c0.055-0.961,0.877-1.695,1.837-1.641C26.034,11.353,26.769,12.175,26.716,13.137
			 M9.095,14.462c0.564,0.368,0.72,1.125,0.351,1.688S8.322,16.871,7.758,16.5c-0.563-0.369-0.721-1.126-0.351-1.688
			C7.777,14.25,8.532,14.091,9.095,14.462 M7.92,33.506c0.603-0.304,1.335-0.062,1.638,0.54c0.303,0.601,0.061,1.334-0.541,1.638
			c-0.601,0.302-1.334,0.062-1.637-0.539C7.078,34.544,7.319,33.809,7.92,33.506 M23.701,44.046
			c0.037-0.673,0.614-1.187,1.286-1.148c0.673,0.038,1.186,0.614,1.148,1.286c-0.037,0.674-0.614,1.188-1.286,1.149
			C24.175,45.295,23.662,44.719,23.701,44.046 M40.905,35.541c-0.562-0.368-0.72-1.126-0.351-1.688
			c0.37-0.562,1.126-0.721,1.689-0.351c0.562,0.369,0.719,1.126,0.351,1.688C42.225,35.753,41.469,35.911,40.905,35.541
			 M42.082,16.498c-0.601,0.302-1.336,0.06-1.639-0.542c-0.303-0.601-0.061-1.333,0.541-1.636c0.601-0.303,1.334-0.062,1.637,0.539
			C42.924,15.461,42.682,16.195,42.082,16.498 M26.177,5.957c-0.038,0.673-0.615,1.186-1.288,1.148
			c-0.671-0.038-1.186-0.614-1.148-1.286c0.039-0.674,0.614-1.188,1.287-1.149C25.701,4.708,26.216,5.285,26.177,5.957"/>
	</g>
</g>
</svg>
