<?xml version="1.0" encoding="UTF-8"?>
<svg width="14px" height="16px" viewBox="0 0 14 16" version="1.1" xmlns="http://www.w3.org/2000/svg" xmlns:xlink="http://www.w3.org/1999/xlink">
    <!-- Generator: sketchtool 41.2 (35397) - http://www.bohemiancoding.com/sketch -->
    <title>8CA44530-588A-4BC1-82BB-100139FA1B9E</title>
    <desc>Created with sketchtool.</desc>
    <defs></defs>
    <g id="Page-1" stroke="none" stroke-width="1" fill="none" fill-rule="evenodd">
        <g id="CardanoBE_transactions" transform="translate(-1653.000000, -365.000000)" fill="#FFFFFF">
            <g id="Group">
                <g id="transaction" transform="translate(96.000000, 250.000000)">
                    <g id="table_transactions" transform="translate(0.000000, 78.000000)">
                        <g id="transaction_head" transform="translate(48.000000, 24.000000)">
                            <g id="blue_btn" transform="translate(1485.000000, 0.000000)">
                                <path d="M28.3622544,21.9891102 L28.9323926,20.5655623 C28.9333543,20.5630238 28.9358786,20.5614083 28.9386433,20.5614083 L33.0329882,20.5614083 C33.035753,20.5614083 33.0382773,20.5630238 33.039239,20.5655623 L33.6266869,21.9889948 C33.6283698,21.9932642 33.6251242,21.9978797 33.6204362,21.9978797 L28.3686253,21.9978797 C28.3638171,21.9978797 28.3605715,21.9932642 28.3622544,21.9891102 L28.3622544,21.9891102 Z M30.9611134,15.5289697 L32.4810012,19.2125168 C32.4828043,19.2167861 32.4795587,19.2214017 32.4747504,19.2214017 L29.4804129,19.2214017 C29.4756046,19.2214017 29.4723591,19.2167861 29.4740419,19.2125168 L30.948612,15.5289697 C30.9507757,15.5235465 30.9588295,15.5234311 30.9611134,15.5289697 L30.9611134,15.5289697 Z M37.9993092,22.6378243 C37.9826006,22.2719274 37.6379693,21.9978797 37.2564346,21.9978797 L35.1363571,21.9978797 C35.1335924,21.9978797 35.131068,21.9962643 35.1299862,21.9938411 L34.5426585,20.5702932 C34.5409756,20.5660239 34.5442211,20.5614083 34.5489092,20.5614083 L35.8704566,20.5614083 C36.2518711,20.5614083 36.5966226,20.2873606 36.6133312,19.9214637 C36.6307611,19.5376816 36.3117338,19.2214017 35.9160148,19.2214017 L33.9906714,19.2214017 C33.9879066,19.2214017 33.9855025,19.2197862 33.9844207,19.2172477 L31.5941195,13.4233604 C31.4882178,13.166621 31.2378282,13.0028847 30.94164,13 C30.6539864,13.0013847 30.3967451,13.1721596 30.2936081,13.4297068 L27.9765126,19.2172477 C27.9755509,19.2196709 27.9730266,19.2214017 27.9702618,19.2214017 L26.0958859,19.2214017 C25.7144714,19.2214017 25.3697199,19.4954494 25.3530113,19.8612309 C25.3355814,20.2451284 25.6546087,20.5614083 26.0503277,20.5614083 L27.4283721,20.5614083 C27.4331803,20.5614083 27.4364259,20.5660239 27.434743,20.5701778 L26.8646048,21.9937258 C26.8636431,21.9962643 26.8611188,21.9978797 26.8583541,21.9978797 L24.7435656,21.9978797 C24.362031,21.9978797 24.0173997,22.2719274 24.000691,22.6378243 C23.9831409,23.0216065 24.3021683,23.3378864 24.6980074,23.3378864 L26.3165845,23.3378864 C26.3213928,23.3378864 26.3246383,23.3425019 26.3229555,23.3467713 L24.4400448,28.0503527 C24.3019279,28.3958258 24.4813958,28.7834158 24.8412933,28.9162279 C24.9235143,28.9465751 25.0085002,28.9609987 25.0916829,28.9609987 C25.3721241,28.9609987 25.6365778,28.7973778 25.7433209,28.5310611 L27.8204848,23.3420404 C27.8214465,23.3396172 27.8239708,23.3378864 27.8267356,23.3378864 L34.178674,23.3378864 C34.1814387,23.3378864 34.183963,23.3396172 34.1849247,23.3420404 L36.3447905,28.5765242 C36.4533367,28.8397254 36.7159874,29 36.9936638,29 C37.0796113,29 37.1664002,28.9847687 37.2509052,28.9526907 C37.6089996,28.8164169 37.7843805,28.4270961 37.6426573,28.083123 L35.6883442,23.3467713 C35.6865411,23.3425019 35.6897867,23.3378864 35.6945949,23.3378864 L37.3019928,23.3378864 C37.6977118,23.3378864 38.0168593,23.0216065 37.9993092,22.6378243 L37.9993092,22.6378243 Z" id="ada_currency_symbol"></path>
                            </g>
                        </g>
                    </g>
                </g>
            </g>
        </g>
    </g>
</svg>