<svg width="208" height="60" viewBox="0 0 208 60" xmlns="http://www.w3.org/2000/svg"><title>F79794F5-5892-43CE-86BB-132FBA56084A</title><g fill="#F9F9F9" fill-rule="evenodd"><path d="M34.778 1.9c-.057.994-.922 1.752-1.93 1.696-1.01-.057-1.78-.907-1.724-1.899.058-.992.923-1.75 1.931-1.694 1.01.056 1.78.906 1.723 1.898zm23.863 15.553a1.845 1.845 0 0 1-2.457-.798 1.785 1.785 0 0 1 .81-2.416 1.845 1.845 0 0 1 2.457.797c.455.888.091 1.97-.81 2.417zM56.877 45.55a1.781 1.781 0 0 1-.526-2.492 1.848 1.848 0 0 1 2.532-.517c.846.545 1.08 1.66.528 2.49a1.85 1.85 0 0 1-2.534.52zM31.063 58.098c.058-.992.922-1.75 1.93-1.694 1.01.055 1.78.907 1.723 1.898-.056.993-.922 1.75-1.93 1.695-1.01-.056-1.78-.906-1.723-1.9zM7.388 42.548a1.844 1.844 0 0 1 2.457.796c.455.887.092 1.97-.81 2.417a1.843 1.843 0 0 1-2.456-.797 1.785 1.785 0 0 1 .81-2.417zm1.764-28.1a1.78 1.78 0 0 1 .527 2.491 1.848 1.848 0 0 1-2.534.518 1.78 1.78 0 0 1-.526-2.49 1.848 1.848 0 0 1 2.533-.518zm26.433-1.954c-.082 1.417-1.317 2.501-2.758 2.42-1.441-.08-2.544-1.295-2.461-2.712.082-1.418 1.316-2.5 2.757-2.42 1.442.08 2.543 1.295 2.462 2.712zm14.13 10.942c-1.289.638-2.86.13-3.51-1.14a2.549 2.549 0 0 1 1.158-3.45c1.29-.64 2.86-.13 3.51 1.138a2.552 2.552 0 0 1-1.157 3.452zm-2.57 17.505a2.545 2.545 0 0 1-.752-3.559c.791-1.186 2.412-1.517 3.618-.74a2.545 2.545 0 0 1 .753 3.559c-.792 1.188-2.411 1.518-3.619.74zm-16.889 6.564c.083-1.418 1.318-2.5 2.758-2.42 1.442.08 2.544 1.295 2.461 2.713-.081 1.416-1.316 2.5-2.758 2.419-1.441-.08-2.542-1.295-2.46-2.712zm-13.942-10.94c1.289-.64 2.86-.13 3.51 1.138a2.551 2.551 0 0 1-1.158 3.452c-1.29.638-2.86.128-3.51-1.139a2.55 2.55 0 0 1 1.158-3.451zm2.57-17.506a2.542 2.542 0 0 1 .75 3.558c-.79 1.188-2.41 1.519-3.617.74a2.543 2.543 0 0 1-.752-3.559c.791-1.186 2.411-1.518 3.619-.739zm31.06-15.211a1.452 1.452 0 0 1-1.99.406 1.4 1.4 0 0 1-.413-1.957 1.452 1.452 0 0 1 1.99-.407 1.4 1.4 0 0 1 .414 1.958zM64.51 31.343a1.421 1.421 0 0 1-1.354-1.492 1.43 1.43 0 0 1 1.518-1.332 1.422 1.422 0 0 1 1.353 1.493 1.429 1.429 0 0 1-1.517 1.33zM47.58 57.496a1.403 1.403 0 0 1 .636-1.899 1.45 1.45 0 0 1 1.931.626 1.402 1.402 0 0 1-.637 1.898 1.449 1.449 0 0 1-1.93-.625zm-31.495-1.344a1.452 1.452 0 0 1 1.99-.406c.663.428.848 1.303.412 1.957a1.451 1.451 0 0 1-1.99.407 1.4 1.4 0 0 1-.412-1.958zM1.519 28.657a1.422 1.422 0 0 1 1.353 1.491c-.044.78-.725 1.376-1.517 1.332a1.422 1.422 0 0 1-1.353-1.492 1.43 1.43 0 0 1 1.517-1.331zM18.45 2.504c.358.697.072 1.548-.636 1.899a1.449 1.449 0 0 1-1.93-.627 1.402 1.402 0 0 1 .635-1.897 1.45 1.45 0 0 1 1.932.625zm28.024 8.83a2.244 2.244 0 0 1-3.075.631 2.164 2.164 0 0 1-.64-3.026 2.244 2.244 0 0 1 3.077-.628 2.162 2.162 0 0 1 .638 3.024zm9.708 20.797c-1.227-.069-2.162-1.101-2.093-2.305.07-1.206 1.12-2.127 2.344-2.059 1.226.07 2.163 1.102 2.093 2.307-.07 1.203-1.12 2.126-2.344 2.057zM42.72 50.795a2.168 2.168 0 0 1 .984-2.934c1.097-.544 2.432-.11 2.984.968a2.167 2.167 0 0 1-.984 2.933c-1.096.543-2.432.11-2.984-.967zm-23.165-2.131a2.243 2.243 0 0 1 3.075-.628 2.163 2.163 0 0 1 .64 3.024 2.244 2.244 0 0 1-3.076.629 2.163 2.163 0 0 1-.64-3.025zM9.848 27.87c1.226.068 2.162 1.1 2.093 2.305-.07 1.204-1.12 2.125-2.345 2.057-1.224-.07-2.162-1.101-2.092-2.305.07-1.206 1.12-2.127 2.344-2.057zm13.46-18.665a2.166 2.166 0 0 1-.985 2.933c-1.095.544-2.43.11-2.982-.967a2.169 2.169 0 0 1 .983-2.935c1.096-.542 2.432-.108 2.984.97zM38.23 25.436a4.487 4.487 0 0 1-2.436-.716c-2.05-1.323-2.623-4.038-1.279-6.055a4.457 4.457 0 0 1 3.722-1.975c.866 0 1.708.248 2.435.717 2.05 1.32 2.624 4.038 1.28 6.055a4.458 4.458 0 0 1-3.722 1.974zm5.267 8.914a4.97 4.97 0 0 1-.256-.007c-2.448-.137-4.326-2.207-4.187-4.615.138-2.395 2.23-4.257 4.692-4.116a4.436 4.436 0 0 1 3.064 1.454 4.297 4.297 0 0 1 1.122 3.16c-.134 2.312-2.082 4.124-4.435 4.124zm-5.222 8.937a4.435 4.435 0 0 1-3.972-2.405 4.272 4.272 0 0 1-.252-3.337 4.365 4.365 0 0 1 2.221-2.537 4.518 4.518 0 0 1 1.999-.468c1.69 0 3.213.922 3.973 2.406 1.104 2.153.22 4.788-1.97 5.872-.619.307-1.31.469-1.999.469zm-10.485.022a4.482 4.482 0 0 1-2.434-.716 4.339 4.339 0 0 1-1.916-2.767 4.282 4.282 0 0 1 .635-3.287 4.454 4.454 0 0 1 3.721-1.976c.867 0 1.709.248 2.436.717a4.344 4.344 0 0 1 1.915 2.766 4.281 4.281 0 0 1-.635 3.288 4.457 4.457 0 0 1-3.722 1.975zm-5.253-8.913c-.085 0-.17-.003-.257-.007-2.446-.138-4.325-2.208-4.186-4.614.14-2.398 2.23-4.26 4.692-4.118 2.449.137 4.326 2.207 4.187 4.613-.134 2.314-2.082 4.126-4.436 4.126zm5.22-8.936c-1.692 0-3.214-.923-3.974-2.406-1.103-2.154-.22-4.788 1.97-5.874a4.537 4.537 0 0 1 1.998-.468c1.69 0 3.212.921 3.973 2.406 1.103 2.153.22 4.788-1.97 5.873a4.528 4.528 0 0 1-1.997.469zM89.347 22.5c1.114 0 2.201.211 3.263.634a8.162 8.162 0 0 1 2.744 1.769l-1.559 1.913a6.391 6.391 0 0 0-2.032-1.446 5.681 5.681 0 0 0-2.371-.534c-1.581 0-2.917.53-4.009 1.59-1.091 1.06-1.637 2.355-1.637 3.882 0 1.543.546 2.844 1.637 3.904 1.092 1.06 2.428 1.591 4.009 1.591 1.64 0 3.109-.615 4.403-1.846l1.581 1.735a9.243 9.243 0 0 1-2.845 1.868c-1.084.46-2.176.69-3.275.69-2.318 0-4.268-.76-5.849-2.28-1.58-1.52-2.37-3.4-2.37-5.64 0-2.21.8-4.067 2.404-5.572 1.604-1.505 3.572-2.258 5.906-2.258zm20.34 12.124h-7.973l-1.513 3.515h-2.777l6.978-15.572h2.732l6.91 15.572H111.2l-1.513-3.515zm-1.017-2.336l-2.981-6.918-2.98 6.918h5.96zm19.007 5.85l-2.89-4.715c-.151.015-.392.022-.723.022h-3.749v4.694h-2.665V22.567h6.414c2.017 0 3.583.463 4.697 1.39 1.114.927 1.671 2.236 1.671 3.926 0 1.246-.282 2.3-.847 3.16-.564.86-1.374 1.49-2.427 1.89l3.545 5.206h-3.026zm-7.362-7.051h3.749c2.56 0 3.839-1.046 3.839-3.137 0-2.017-1.28-3.025-3.84-3.025h-3.748v6.162zm15.168-8.52h6.481c2.364 0 4.317.734 5.86 2.202 1.544 1.468 2.315 3.33 2.315 5.584 0 2.254-.775 4.115-2.326 5.583-1.55 1.469-3.523 2.203-5.917 2.203h-6.413V22.567zm2.665 2.358V35.78h3.884c1.55 0 2.842-.508 3.873-1.524 1.031-1.016 1.547-2.31 1.547-3.882s-.53-2.873-1.592-3.904c-1.062-1.03-2.375-1.546-3.94-1.546h-3.772zm26.143 9.699h-7.972l-1.513 3.515h-2.777l6.978-15.572h2.732l6.91 15.572h-2.845l-1.513-3.515zm-1.016-2.336l-2.981-6.918-2.981 6.918h5.962zm22.688 5.85h-2.62l-8.423-11.167V38.14h-2.665V22.567h2.62l8.468 11.19v-11.19h2.62v15.572zM198.714 22.5c2.364 0 4.351.753 5.962 2.258 1.611 1.505 2.417 3.37 2.417 5.595 0 2.224-.806 4.097-2.417 5.617-1.61 1.52-3.598 2.28-5.962 2.28-2.363 0-4.35-.76-5.961-2.28-1.611-1.52-2.417-3.393-2.417-5.617 0-2.225.806-4.09 2.417-5.595 1.61-1.505 3.598-2.258 5.961-2.258zm.023 2.358c-1.566 0-2.906.53-4.02 1.59-1.114 1.061-1.67 2.362-1.67 3.905 0 1.542.56 2.85 1.682 3.926 1.121 1.075 2.457 1.613 4.008 1.613 1.55 0 2.876-.538 3.975-1.613 1.099-1.075 1.648-2.384 1.648-3.926 0-1.543-.55-2.844-1.648-3.904-1.1-1.06-2.424-1.59-3.975-1.59z" opacity=".85"/></g></svg>