<?xml version="1.0" encoding="utf-8"?>
<svg xmlns="http://www.w3.org/2000/svg" viewBox="0 0 50 50" width="50" height="50"><path d=" M 25 0 Q 31.803 0 37.549 3.368 Q 43.294 6.736 46.647 12.508 Q 50 18.279 50 25.114 Q 50 33.321 45.231 39.878 Q 40.462 46.434 32.91 48.952 Q 32.031 49.115 31.608 48.723 Q 31.185 48.331 31.185 47.742 Q 31.185 47.644 31.201 45.24 Q 31.217 42.837 31.217 40.842 Q 31.217 37.67 29.525 36.199 Q 31.38 36.003 32.861 35.61 Q 34.342 35.218 35.921 34.335 Q 37.5 33.452 38.558 32.16 Q 39.616 30.869 40.283 28.727 Q 40.951 26.585 40.951 23.806 Q 40.951 19.914 38.379 17.069 Q 39.583 14.094 38.118 10.399 Q 37.207 10.104 35.482 10.758 Q 33.757 11.412 32.487 12.197 L 31.25 12.982 Q 28.223 12.132 25 12.132 Q 21.777 12.132 18.75 12.982 Q 18.229 12.622 17.367 12.099 Q 16.504 11.576 14.648 10.84 Q 12.793 10.104 11.882 10.399 Q 10.417 14.094 11.621 17.069 Q 9.049 19.914 9.049 23.806 Q 9.049 26.585 9.717 28.711 Q 10.384 30.836 11.426 32.144 Q 12.467 33.452 14.046 34.335 Q 15.625 35.218 17.106 35.61 Q 18.587 36.003 20.443 36.199 Q 19.173 37.376 18.848 39.567 Q 18.164 39.894 17.383 40.058 Q 16.602 40.221 15.527 40.221 Q 14.453 40.221 13.395 39.518 Q 12.337 38.815 11.589 37.474 Q 10.97 36.428 10.01 35.774 Q 9.049 35.12 8.398 34.989 L 7.747 34.891 Q 7.064 34.891 6.803 35.038 Q 6.543 35.185 6.641 35.414 Q 6.738 35.643 6.934 35.872 Q 7.129 36.101 7.357 36.264 L 7.585 36.428 Q 8.301 36.755 9.001 37.67 Q 9.701 38.586 10.026 39.338 L 10.352 40.09 Q 10.775 41.333 11.784 42.101 Q 12.793 42.87 13.965 43.082 Q 15.137 43.295 16.227 43.311 Q 17.318 43.328 18.034 43.197 L 18.783 43.066 Q 18.783 44.309 18.799 45.96 Q 18.815 47.611 18.815 47.742 Q 18.815 48.331 18.392 48.723 Q 17.969 49.115 17.09 48.952 Q 9.538 46.434 4.769 39.878 Q 0 33.321 0 25.114 Q 0 18.279 3.353 12.508 Q 6.706 6.736 12.451 3.368 Q 18.197 0 25 0 Z  M 9.473 36.068 Q 9.57 35.839 9.245 35.676 Q 8.919 35.578 8.822 35.741 Q 8.724 35.97 9.049 36.134 Q 9.342 36.33 9.473 36.068 Z  M 10.482 37.18 Q 10.71 37.016 10.417 36.657 Q 10.091 36.362 9.896 36.559 Q 9.668 36.722 9.961 37.082 Q 10.286 37.409 10.482 37.18 Z  M 11.458 38.651 Q 11.751 38.423 11.458 38.03 Q 11.198 37.605 10.905 37.834 Q 10.612 37.997 10.905 38.423 Q 11.198 38.848 11.458 38.651 Z  M 12.826 40.025 Q 13.086 39.763 12.695 39.404 Q 12.305 39.011 12.044 39.305 Q 11.751 39.567 12.174 39.927 Q 12.565 40.319 12.826 40.025 Z  M 14.681 40.842 Q 14.779 40.483 14.258 40.319 Q 13.77 40.188 13.639 40.548 Q 13.509 40.908 14.063 41.039 Q 14.551 41.235 14.681 40.842 Z  M 16.732 41.006 Q 16.732 40.581 16.178 40.646 Q 15.658 40.646 15.658 41.006 Q 15.658 41.431 16.211 41.366 Q 16.732 41.366 16.732 41.006 Z  M 18.62 40.679 Q 18.555 40.319 18.034 40.385 Q 17.513 40.483 17.578 40.875 Q 17.643 41.267 18.164 41.137 Q 18.685 41.006 18.62 40.679 Z " fill="#FFF"/>
</svg>
