<?xml version="1.0" encoding="UTF-8"?>
<svg width="12px" height="20px" viewBox="0 0 12 20" version="1.1" xmlns="http://www.w3.org/2000/svg" xmlns:xlink="http://www.w3.org/1999/xlink">
    <!-- Generator: Sketch 42 (36781) - http://www.bohemiancoding.com/sketch -->
    <title>$</title>
    <desc>Created with Sketch.</desc>
    <defs></defs>
    <g id="Page-1" stroke="none" stroke-width="1" fill="none" fill-rule="evenodd">
        <g id="CardanoBE" transform="translate(-1584.000000, -2132.000000)" fill="#333333">
            <g id="Group">
                <g id="transactions_feed" transform="translate(96.000000, 2030.000000)">
                    <g id="table_current_blocks" transform="translate(0.000000, 78.000000)">
                        <g id="info" transform="translate(48.000000, 19.000000)">
                            <g id="size" transform="translate(1440.000000, 2.000000)">
                                <path d="M7.26,8.22 L7.26,11.92 C7.9133366,12.120001 8.4333314,12.2999992 8.82,12.46 C9.2066686,12.6200008 9.6399976,12.8566651 10.12,13.17 C10.6000024,13.4833349 10.9533322,13.8766643 11.18,14.35 C11.4066678,14.8233357 11.52,15.3866634 11.52,16.04 C11.52,17.1333388 11.1333372,18.0333298 10.36,18.74 C9.5866628,19.4466702 8.5533398,19.8733326 7.26,20.02 L7.26,22.84 L5.5,22.84 L5.5,20.04 C3.5799904,19.8799992 1.920007,19.1533398 0.52,17.86 L1.54,15.82 C2.740006,16.9266722 4.0599928,17.5866656 5.5,17.8 L5.5,13.8 C4.9933308,13.6533326 4.5866682,13.5233339 4.28,13.41 C3.9733318,13.2966661 3.6100021,13.1266678 3.19,12.9 C2.7699979,12.6733322 2.4433345,12.4333346 2.21,12.18 C1.9766655,11.9266654 1.7733342,11.5933354 1.6,11.18 C1.4266658,10.7666646 1.34,10.3066692 1.34,9.8 C1.34,8.7466614 1.7133296,7.8800034 2.46,7.2 C3.2066704,6.5199966 4.2199936,6.1066674 5.5,5.96 L5.5,3.32 L7.26,3.32 L7.26,5.94 C8.8066744,6.0866674 10.1666608,6.5533294 11.34,7.34 L10.36,9.42 C9.3466616,8.8066636 8.3133386,8.4066676 7.26,8.22 Z M3.98,9.58 C3.98,10.3400038 4.4866616,10.919998 5.5,11.32 L5.5,8.18 C4.4866616,8.3533342 3.98,8.8199962 3.98,9.58 Z M7.26,14.34 L7.26,17.78 C8.3533388,17.5533322 8.9,17.0133376 8.9,16.16 C8.9,15.3733294 8.3533388,14.7666688 7.26,14.34 Z" id="$"></path>
                            </g>
                        </g>
                    </g>
                </g>
            </g>
        </g>
    </g>
</svg>