<?xml version="1.0" encoding="UTF-8"?>
<svg width="14px" height="16px" viewBox="0 0 14 16" version="1.1" xmlns="http://www.w3.org/2000/svg" xmlns:xlink="http://www.w3.org/1999/xlink">
    <!-- Generator: sketchtool 41.2 (35397) - http://www.bohemiancoding.com/sketch -->
    <title>EABC6683-AC45-4FDA-9A61-065F6B7D3594</title>
    <desc>Created with sketchtool.</desc>
    <defs></defs>
    <g id="Page-1" stroke="none" stroke-width="1" fill="none" fill-rule="evenodd">
        <g id="CardanoBE_transactions" transform="translate(-1684.000000, -458.000000)" fill="#333333">
            <g id="Group">
                <g id="transaction" transform="translate(96.000000, 250.000000)">
                    <g id="table_transactions" transform="translate(0.000000, 78.000000)">
                        <g id="transaction" transform="translate(48.000000, 128.000000)">
                            <g id="money" transform="translate(1540.000000, 1.000000)">
                                <path d="M4.36225439,9.98911021 L4.93239261,8.5655623 C4.93335426,8.56302376 4.93587859,8.56140832 4.93864333,8.56140832 L9.03298824,8.56140832 C9.03575298,8.56140832 9.03827731,8.56302376 9.03923896,8.5655623 L9.62668688,9.98899482 C9.62836977,9.9932642 9.6251242,9.99787974 9.62043615,9.99787974 L4.36862532,9.99787974 C4.36381707,9.99787974 4.3605715,9.9932642 4.36225439,9.98911021 L4.36225439,9.98911021 Z M6.9611134,3.52896972 L8.48100116,7.21251677 C8.48280425,7.21678614 8.47955868,7.22140168 8.47475043,7.22140168 L5.48041288,7.22140168 C5.47560463,7.22140168 5.47235906,7.21678614 5.47404195,7.21251677 L6.94861195,3.52896972 C6.95077566,3.52354647 6.95882948,3.52343108 6.9611134,3.52896972 L6.9611134,3.52896972 Z M13.9993092,10.6378243 C13.9826006,10.2719274 13.6379693,9.99787974 13.2564346,9.99787974 L11.1363571,9.99787974 C11.1335924,9.99787974 11.131068,9.9962643 11.1299862,9.99384114 L10.5426585,8.57029323 C10.5409756,8.56602386 10.5442211,8.56140832 10.5489092,8.56140832 L11.8704566,8.56140832 C12.2518711,8.56140832 12.5966226,8.28736063 12.6133312,7.9214637 C12.6307611,7.53768156 12.3117338,7.22140168 11.9160148,7.22140168 L9.99067139,7.22140168 C9.98790664,7.22140168 9.98550252,7.21978624 9.98442066,7.2172477 L7.59411949,1.4233604 C7.48821778,1.16662099 7.23782818,1.00288471 6.94163999,1 C6.65398645,1.00138466 6.39674508,1.17215964 6.29360812,1.42970677 L3.97651255,7.2172477 C3.9755509,7.21967085 3.97302657,7.22140168 3.97026183,7.22140168 L2.09588585,7.22140168 C1.71447144,7.22140168 1.36971993,7.49544937 1.35301126,7.86123091 C1.33558136,8.24512844 1.65460873,8.56140832 2.05032769,8.56140832 L3.42837208,8.56140832 C3.43318033,8.56140832 3.43642589,8.56602386 3.43474301,8.57017784 L2.86460479,9.99372575 C2.86364314,9.9962643 2.86111881,9.99787974 2.85835406,9.99787974 L0.743565601,9.99787974 C0.362030981,9.99787974 0.017399677,10.2719274 0.000691009002,10.6378243 C-0.0168591027,11.0216065 0.302168271,11.3378864 0.698007434,11.3378864 L2.31658452,11.3378864 C2.32139277,11.3378864 2.32463834,11.3425019 2.32295545,11.3467713 L0.440044833,16.0503527 C0.301927858,16.3958258 0.481395782,16.7834158 0.841293278,16.9162279 C0.923514349,16.9465751 1.00850016,16.9609987 1.09168289,16.9609987 C1.37212405,16.9609987 1.63657779,16.7973778 1.74332094,16.5310611 L3.82048485,11.3420404 C3.8214465,11.3396172 3.82397083,11.3378864 3.82673557,11.3378864 L10.178674,11.3378864 C10.1814387,11.3378864 10.183963,11.3396172 10.1849247,11.3420404 L12.3447905,16.5765242 C12.4533367,16.8397254 12.7159874,17 12.9936638,17 C13.0796113,17 13.1664002,16.9847687 13.2509052,16.9526907 C13.6089996,16.8164169 13.7843805,16.4270961 13.6426573,16.083123 L11.6883442,11.3467713 C11.6865411,11.3425019 11.6897867,11.3378864 11.6945949,11.3378864 L13.3019928,11.3378864 C13.6977118,11.3378864 14.0168593,11.0216065 13.9993092,10.6378243 L13.9993092,10.6378243 Z" id="ada_currency_symbol_dark"></path>
                            </g>
                        </g>
                    </g>
                </g>
            </g>
        </g>
    </g>
</svg>