<?xml version="1.0" encoding="UTF-8"?>
<svg width="98px" height="90px" viewBox="0 0 98 90" version="1.1" xmlns="http://www.w3.org/2000/svg" xmlns:xlink="http://www.w3.org/1999/xlink">
    <!-- Generator: sketchtool 41.2 (35397) - http://www.bohemiancoding.com/sketch -->
    <title>995D341A-6CA3-48F2-98B1-E3950859FBF4</title>
    <desc>Created with sketchtool.</desc>
    <defs></defs>
    <g id="Symbols" stroke="none" stroke-width="1" fill="none" fill-rule="evenodd" opacity="0.699999988">
        <g id="header" transform="translate(-192.000000, -24.000000)" fill="#FFFFFF">
            <g id="cardano-logo">
                <g transform="translate(192.000000, 24.000000)">
                    <path d="M51.6174357,2.85103221 C51.5320905,4.34042029 50.2485883,5.47729048 48.7522774,5.39356748 C47.2537498,5.30874286 46.1099033,4.03306876 46.19414,2.54588392 C46.2794852,1.05759746 47.5629874,-0.0803743454 49.0604066,0.00445027129 C50.5578259,0.0881732696 51.7016724,1.36384738 51.6174357,2.85103221 L51.6174357,2.85103221 Z M87.0334517,26.1789034 C85.6934222,26.8486874 84.0618891,26.3133009 83.3868866,24.9825458 C82.7107758,23.6517908 83.2505561,22.0291069 84.5894772,21.3582213 C85.9283984,20.6884373 87.5610398,21.2227223 88.2360423,22.5534773 C88.9110447,23.8853339 88.3712644,25.5080178 87.0334517,26.1789034 L87.0334517,26.1789034 Z M84.4165702,68.3268234 C83.1618858,67.5094225 82.8116382,65.8349626 83.6351634,64.5890321 C84.4553634,63.3442034 86.1389903,62.9949903 87.3936747,63.8123912 C88.648359,64.6308936 88.9963899,66.3020488 88.1761898,67.5490808 C87.3515563,68.7961128 85.6690378,69.1431226 84.4165702,68.3268234 L84.4165702,68.3268234 Z M46.103253,87.1468721 C46.1885981,85.6585856 47.4721004,84.5206138 48.9684112,84.6054385 C50.4658305,84.6891614 51.609677,85.9659372 51.5254403,87.453122 C51.4412035,88.9425101 50.1565929,90.0793803 48.660282,89.9956573 C47.1617544,89.9108327 46.0179079,88.6362602 46.103253,87.1468721 L46.103253,87.1468721 Z M10.96544,63.8212041 C12.3054695,63.1503185 13.9381109,63.6857051 14.612005,65.0153585 C15.2870075,66.3472151 14.7483356,67.969899 13.4094144,68.6407846 C12.0716017,69.3116702 10.4378519,68.7762837 9.76395778,67.4455287 C9.08895532,66.1147736 9.62651885,64.4920897 10.96544,63.8212041 L10.96544,63.8212041 Z M13.5834299,21.6732842 C14.8370059,22.490685 15.1872534,24.1629418 14.3648366,25.4088722 C13.5424198,26.6559042 11.8599014,27.002914 10.605217,26.1855131 C9.351641,25.3692139 9.00139342,23.6958556 9.82381022,22.4499251 C10.646227,21.2039947 12.3287455,20.8558833 13.5834299,21.6732842 L13.5834299,21.6732842 Z M52.8144844,18.740776 C52.6925628,20.8668995 50.8593048,22.4928883 48.7212428,22.3717102 C46.5820725,22.2505322 44.9461059,20.4284554 45.0680275,18.3034335 C45.1899492,16.1762084 47.0220987,14.5524228 49.1601607,14.6724993 C51.3004395,14.7925757 52.9352976,16.6157541 52.8144844,18.740776 L52.8144844,18.740776 Z M73.7872211,35.1537885 C71.8730515,36.1110949 69.5421317,35.3476734 68.5778424,33.4451784 C67.6135532,31.543785 68.3827678,29.2259799 70.295829,28.2686735 C72.2088902,27.3102655 74.5409184,28.0747887 75.506316,29.976182 C76.4694969,31.8764738 75.6991738,34.1953805 73.7872211,35.1537885 L73.7872211,35.1537885 Z M69.9721825,61.4119647 C68.1821513,60.2442492 67.6811643,57.8537373 68.8560454,56.0735219 C70.0298182,54.2944082 72.4361077,53.7975783 74.2261389,54.9630906 C76.0183868,56.1319077 76.5182655,58.5224196 75.3433844,60.3015333 C74.1673949,62.0828503 71.7644304,62.5785786 69.9721825,61.4119647 L69.9721825,61.4119647 Z M44.9062043,71.2571283 C45.0281259,69.1310048 46.8613838,67.5072193 48.9994458,67.6272957 C51.1386162,67.7484737 52.7745828,69.5705505 52.6515528,71.6966741 C52.5307395,73.8216959 50.69859,75.4476847 48.5583112,75.3254051 C46.4191408,75.2053287 44.785391,73.3832518 44.9062043,71.2571283 L44.9062043,71.2571283 Z M24.212779,54.8474206 C26.1258402,53.887911 28.4578684,54.6535358 29.4221576,56.5538275 C30.3864469,58.4552209 29.6161238,60.7741276 27.7030627,61.7325356 C25.7900015,62.689842 23.4590817,61.9242172 22.4936841,60.0239255 C21.5305032,58.1214305 22.3008262,55.804727 24.212779,54.8474206 L24.212779,54.8474206 Z M28.0267092,28.5892445 C29.8178487,29.7547568 30.3177274,32.1452687 29.1417379,33.925484 C27.9690735,35.706801 25.5638923,36.2036309 23.7727528,35.0348137 C21.9816132,33.8681999 21.4806262,31.4787895 22.6566157,29.6974726 C23.8303884,27.9172573 26.2344613,27.4204274 28.0267092,28.5892445 L28.0267092,28.5892445 Z M74.1274932,5.77142259 C73.4813086,6.75076135 72.1579048,7.02396271 71.1736647,6.38171918 C70.1894247,5.73947566 69.9134384,4.42524491 70.5596231,3.44480453 C71.2069161,2.46656739 72.5292115,2.19226441 73.5134516,2.83560956 C74.4976916,3.47785308 74.7725695,4.79208383 74.1274932,5.77142259 L74.1274932,5.77142259 Z M95.7453061,47.0138122 C94.5682082,46.9488167 93.668205,45.946344 93.735816,44.7764252 C93.8034271,43.6076081 94.8109431,42.7141956 95.988041,42.7791911 C97.1651389,42.8452882 98.0640338,43.8477609 97.9964227,45.0176797 C97.9288116,46.1864968 96.9212956,47.0810109 95.7453061,47.0138122 L95.7453061,47.0138122 Z M70.6172587,86.243545 C70.0874539,85.1959059 70.5108544,83.9213334 71.5615972,83.3958614 C72.6145567,82.8681862 73.8969505,83.2890045 74.4278638,84.3344403 C74.9576687,85.3798762 74.5342681,86.6544487 73.482417,87.1810223 C72.4294575,87.7086975 71.1470636,87.2878793 70.6172587,86.243545 L70.6172587,86.243545 Z M23.8725068,84.228685 C24.5186914,83.2493462 25.8409869,82.9761448 26.8263353,83.6183884 C27.8105754,84.2606319 28.0854532,85.573761 27.4381602,86.5542014 C26.793084,87.5324385 25.4707885,87.8078431 24.4854401,87.164498 C23.5012,86.5222545 23.2263222,85.2080237 23.8725068,84.228685 L23.8725068,84.228685 Z M2.25469391,42.9851937 C3.43068343,43.0523924 4.32957834,44.052662 4.26307563,45.2225807 C4.19657292,46.3913978 3.18684017,47.285912 2.01085066,47.2198148 C0.834861145,47.1526161 -0.0640337618,46.1501434 0.00357732249,44.9824279 C0.0700800283,43.8125091 1.0787044,42.9190966 2.25469391,42.9851937 L2.25469391,42.9851937 Z M27.3827413,3.75656254 C27.9125462,4.8019984 27.4880373,6.0776725 26.4372945,6.6042461 C25.384335,7.13081969 24.1030495,6.71110308 23.5721363,5.6645656 C23.0423314,4.61912974 23.4646236,3.34455726 24.5164747,2.81798366 C25.5694342,2.29030845 26.8507197,2.71112668 27.3827413,3.75656254 L27.3827413,3.75656254 Z M68.9746419,17.0024222 C67.9771013,18.5160458 65.9332515,18.9390673 64.4103395,17.9476108 C62.8885359,16.953951 62.4629186,14.9225666 63.4615676,13.4089429 C64.4602166,11.8942177 66.5051748,11.4733994 68.0269783,12.4659576 C69.5498903,13.4585158 69.9732909,15.4899001 68.9746419,17.0024222 L68.9746419,17.0024222 Z M83.3824531,48.1958487 C81.5624957,48.0933982 80.1736976,46.5445228 80.2767768,44.7389702 C80.3809643,42.9301128 81.938236,41.5486833 83.7559767,41.6511338 C85.5748257,41.754686 86.9658406,43.3035614 86.861653,45.1113172 C86.7585738,46.9157682 85.2001937,48.2994009 83.3824531,48.1958487 L83.3824531,48.1958487 Z M63.4061487,76.1923787 C62.5859486,74.5752029 63.2410003,72.6066108 64.8658831,71.7914132 C66.494091,70.9762156 68.4758716,71.6261705 69.2949633,73.2433463 C70.1129466,74.8594205 69.46122,76.8302158 67.8341205,77.6432102 C66.2081293,78.4573062 64.2252403,77.8084529 63.4061487,76.1923787 L63.4061487,76.1923787 Z M29.0242498,72.9954821 C30.0228987,71.4829601 32.0656402,71.0599386 33.5885521,72.0535984 C35.1103557,73.045055 35.5370814,75.0764393 34.5384325,76.590063 C33.5397835,78.1036867 31.4959337,78.5256065 29.9730217,77.5330483 C28.4501097,76.5404902 28.0256008,74.5091058 29.0242498,72.9954821 L29.0242498,72.9954821 Z M14.6164385,41.8042588 C16.4352876,41.9067093 17.8251941,43.4544832 17.7221149,45.262239 C17.6190357,47.0688931 16.0606556,48.4503226 14.2418066,48.3478721 C12.4251744,48.2432183 11.0341595,46.6965461 11.1372387,44.8898919 C11.2414262,43.0821361 12.7986979,41.7007067 14.6164385,41.8042588 L14.6164385,41.8042588 Z M34.592743,13.8077288 C35.412943,15.423803 34.7589998,17.3945983 33.1319002,18.2075927 C31.5059091,19.0227903 29.5241284,18.3717338 28.7050368,16.7567613 C27.8848367,15.1406871 28.5398884,13.1698918 30.1647712,12.3546941 C31.7907623,11.5416998 33.7736513,12.1916546 34.592743,13.8077288 L34.592743,13.8077288 Z M56.7414692,38.154597 C55.4557502,38.154597 54.2066077,37.78225 53.1270471,37.0794175 C50.0845483,35.0954027 49.2333137,31.0227195 51.2283949,27.9976754 C52.453153,26.14255 54.5169537,25.0343219 56.752553,25.0343219 C58.0382719,25.0343219 59.2874144,25.4066689 60.3658666,26.1106031 C63.4083654,28.091313 64.2607084,32.167301 62.2656273,35.1923452 C61.0408691,37.0463689 58.9770685,38.154597 56.7414692,38.154597 L56.7414692,38.154597 Z M64.5588622,51.5249396 C64.4325071,51.5249396 64.3050436,51.5205331 64.1786884,51.5139234 C60.5454239,51.3090223 57.7589606,48.2035601 57.965119,44.592455 C58.170169,40.9989757 61.274737,38.2063731 64.9290606,38.4178838 C66.6891656,38.5159279 68.3051813,39.2914672 69.4767373,40.5990883 C70.6505101,41.9056077 71.2423842,43.5888806 71.1415217,45.3393522 C70.943122,48.807247 68.0513627,51.5249396 64.5588622,51.5249396 L64.5588622,51.5249396 Z M56.8090803,64.9305338 C54.3019282,64.9305338 52.0419446,63.5480028 50.9136154,61.3227336 C50.1189081,59.7573338 49.987011,57.9793217 50.5400919,56.3169796 C51.0920643,54.6513326 52.2625119,53.3007484 53.8364093,52.5119896 C54.7541466,52.0515131 55.7805051,51.8102587 56.80243,51.8102587 C59.3106904,51.8102587 61.570674,53.1927898 62.7001116,55.4191606 C64.3371866,58.6491057 63.0259749,62.6017126 59.7762093,64.2277013 C58.8573636,64.6881778 57.8321135,64.9305338 56.8090803,64.9305338 L56.8090803,64.9305338 Z M41.2474471,64.9635824 C39.9617281,64.9635824 38.7125856,64.592337 37.6341334,63.8895045 C36.1588817,62.9288932 35.149149,61.4549278 34.7911427,59.739708 C34.4320281,58.0244881 34.7667584,56.2729148 35.7332644,54.808864 C36.9569142,52.9515354 39.0229316,51.8444089 41.2563141,51.8444089 C42.5420331,51.8444089 43.792284,52.2167559 44.8718446,52.9206901 C46.3459879,53.8813013 47.3546122,55.3552667 47.7137269,57.069385 C48.0739498,58.7846048 47.7381112,60.5361781 46.7716052,62.0013305 C45.546847,63.8564559 43.4830464,64.9635824 41.2474471,64.9635824 L41.2474471,64.9635824 Z M33.4500048,51.5943415 C33.3247581,51.5943415 33.1984029,51.589935 33.069831,51.5833253 C29.4387833,51.3762211 26.6501032,48.2718604 26.8562616,44.6618569 C27.0635283,41.0661745 30.1647712,38.2735718 33.8202032,38.4850826 C37.4545761,38.6910852 40.2410395,41.7954459 40.0348811,45.4054493 C39.835373,48.8766489 36.9436136,51.5943415 33.4500048,51.5943415 L33.4500048,51.5943415 Z M41.1975701,38.1898488 C38.6870929,38.1898488 36.4282177,36.8062161 35.2998884,34.580947 C33.6628135,31.3499002 34.9740252,27.398395 38.2237907,25.770203 C39.1415281,25.3119297 40.1678865,25.0684721 41.188703,25.0684721 C43.6980718,25.0684721 45.956947,26.4499016 47.0863847,28.677374 C48.7234596,31.9062175 47.4122479,35.8588243 44.1624824,37.4870163 C43.244745,37.9463912 42.2183866,38.1898488 41.1975701,38.1898488 L41.1975701,38.1898488 Z"></path>
                </g>
            </g>
        </g>
    </g>
</svg>