<?xml version="1.0" encoding="utf-8"?>
<svg xmlns="http://www.w3.org/2000/svg" viewBox="0 0 50 40" width="50" height="40">
  <path d=" M 50 4.75 Q 47.875 7.812 44.861 9.969 Q 44.892 10.406 44.892 11.281 Q 44.892 15.344 43.687 19.391 Q 42.481 23.437 40.022 27.156 Q 37.563 30.875 34.169 33.734 Q 30.774 36.594 25.984 38.297 Q 21.193 40 15.736 40 Q 7.138 40 0 35.469 Q 1.111 35.594 2.475 35.594 Q 9.613 35.594 15.197 31.281 Q 11.865 31.219 9.232 29.265 Q 6.599 27.312 5.615 24.281 Q 6.663 24.437 7.551 24.437 Q 8.915 24.437 10.248 24.094 Q 6.694 23.375 4.363 20.609 Q 2.03 17.844 2.03 14.187 L 2.03 14.062 Q 4.188 15.25 6.663 15.344 Q 4.569 13.969 3.331 11.75 Q 2.094 9.531 2.094 6.938 Q 2.094 4.188 3.49 1.844 Q 7.329 6.5 12.833 9.297 Q 18.338 12.094 24.619 12.406 Q 24.365 11.219 24.365 10.094 Q 24.365 5.906 27.363 2.953 Q 30.362 0 34.613 0 Q 39.055 0 42.1 3.188 Q 45.558 2.531 48.604 0.75 Q 47.43 4.344 44.099 6.313 Q 47.05 6 50 4.75 Z " fill="#FFF"/>
</svg>
