<?xml version="1.0" encoding="utf-8"?>
<svg width="1792" height="1792" xmlns="http://www.w3.org/2000/svg" viewBox="0 0 50 50" width="50" height="50">
<path d=" M 50 17.667 L 50 39.821 Q 50 41.663 48.689 42.974 Q 47.377 44.286 45.536 44.286 L 4.464 44.286 Q 2.623 44.286 1.311 42.974 Q 0 41.663 0 39.821 L 0 17.667 Q 1.228 19.035 2.818 20.095 Q 12.919 26.959 16.685 29.721 Q 18.276 30.893 19.266 31.549 Q 20.257 32.204 21.903 32.888 Q 23.549 33.571 24.972 33.571 L 25.028 33.571 Q 26.451 33.571 28.097 32.888 Q 29.743 32.204 30.734 31.549 Q 31.724 30.893 33.315 29.721 Q 38.058 26.289 47.21 20.095 Q 48.8 19.007 50 17.667 Z  M 50 9.464 Q 50 11.669 48.633 13.677 Q 47.266 15.686 45.229 17.109 Q 34.738 24.392 32.171 26.177 Q 31.892 26.373 30.985 27.028 Q 30.078 27.684 29.478 28.089 Q 28.878 28.493 28.027 28.996 Q 27.176 29.498 26.423 29.749 Q 25.67 30 25.028 30 L 24.972 30 Q 24.33 30 23.577 29.749 Q 22.824 29.498 21.973 28.996 Q 21.122 28.493 20.522 28.089 Q 19.922 27.684 19.015 27.028 Q 18.108 26.373 17.829 26.177 Q 15.29 24.392 10.519 21.085 Q 5.748 17.779 4.799 17.109 Q 3.069 15.938 1.535 13.887 Q 0 11.836 0 10.078 Q 0 7.902 1.158 6.451 Q 2.316 5 4.464 5 L 45.536 5 Q 47.349 5 48.675 6.311 Q 50 7.623 50 9.464 Z " fill="#fff"/>
</svg>
