<svg xmlns="http://www.w3.org/2000/svg" width="535" height="305" viewBox="0 0 535 305">
    <g fill="#333" fill-rule="evenodd">
        <path d="M280.773 54.769c-8.85-3.46-18.392-5.19-28.628-5.19-21.68 0-40.219 7.714-55.616 23.144-15.397 15.43-23.095 33.951-23.095 55.566 0 21.68 7.698 40.218 23.095 55.615 7.1 7.1 14.87 12.564 23.306 16.39l12.217-29.175c-4.787-2.27-9.206-5.43-13.257-9.48-9.212-9.213-13.818-20.33-13.818-33.35 0-12.956 4.606-24.072 13.818-33.35 9.212-9.277 20.329-13.916 33.35-13.916 5.857 0 11.338.948 16.443 2.845l12.185-29.099zm-199.136-5.19l33.984.194-39.355 94.239h39.355V81.023h31.445v62.989h15.82v31.445h-15.82V207h-31.445v-31.543H29L81.637 49.578zM312.773 5.769c9.836 3.847 18.815 9.831 26.938 17.954 15.43 15.43 23.144 33.951 23.144 55.566 0 21.68-7.714 40.218-23.144 55.615C324.28 150.301 305.759 158 284.145 158c-11.682 0-22.452-2.235-32.31-6.706l12.217-29.175c6.1 2.892 12.797 4.338 20.093 4.338 12.955 0 24.072-4.606 33.35-13.818 9.276-9.213 13.915-20.33 13.915-33.35 0-12.956-4.639-24.072-13.916-33.35-5.083-5.083-10.719-8.773-16.906-11.071l12.185-29.099zM424.672.579l33.984.194-39.355 94.239h39.355V32.023h31.446v62.989h15.82v31.445h-15.82V158h-31.446v-31.543h-86.62L424.671.578zM320.156 251h-5.104l-16.412-22.088V251h-5.192v-30.8h5.104l16.5 22.132V220.2h5.104V251zm17.864-23.584c3.608 0 6.541 1.093 8.8 3.278 2.259 2.185 3.388 5.053 3.388 8.602 0 3.52-1.13 6.38-3.388 8.58-2.259 2.2-5.192 3.3-8.8 3.3-3.637 0-6.585-1.1-8.844-3.3-2.259-2.2-3.388-5.06-3.388-8.58 0-3.55 1.13-6.417 3.388-8.602 2.259-2.185 5.207-3.278 8.844-3.278zm0 4.356c-2.112 0-3.835.704-5.17 2.112-1.335 1.408-2.002 3.227-2.002 5.456 0 2.259.667 4.092 2.002 5.5 1.335 1.408 3.058 2.112 5.17 2.112s3.828-.704 5.148-2.112c1.32-1.408 1.98-3.241 1.98-5.5 0-2.23-.667-4.048-2.002-5.456-1.335-1.408-3.043-2.112-5.126-2.112zm33.88-4.18v4.664c1.613-3.227 4.312-4.84 8.096-4.84v4.84c-2.317-.117-4.195.425-5.632 1.628-1.437 1.203-2.259 2.83-2.464 4.884V251h-5.06v-23.408h5.06zm21.912-.176c4.019 0 6.93 1.21 8.734 3.63 1.804 2.42 2.545 5.815 2.222 10.186H387.08c.41 1.819 1.261 3.249 2.552 4.29 1.29 1.041 2.86 1.562 4.708 1.562 2.64 0 4.84-.91 6.6-2.728l2.684 2.86c-2.405 2.64-5.632 3.96-9.68 3.96-3.608 0-6.505-1.093-8.69-3.278-2.185-2.185-3.278-5.038-3.278-8.558 0-3.52 1.1-6.38 3.3-8.58 2.2-2.2 5.045-3.315 8.536-3.344zm-6.82 10.12h13.376c-.088-1.877-.719-3.359-1.892-4.444s-2.713-1.628-4.62-1.628c-1.848 0-3.38.543-4.598 1.628-1.217 1.085-1.973 2.567-2.266 4.444zm30.052-10.164c3.227 0 5.955.792 8.184 2.376l-1.848 3.74c-2.23-1.379-4.473-2.068-6.732-2.068-2.288 0-3.432.777-3.432 2.332 0 .763.425 1.393 1.276 1.892.85.499 1.885.917 3.102 1.254 1.217.337 2.435.733 3.652 1.188a7.28 7.28 0 0 1 3.102 2.222c.85 1.027 1.276 2.332 1.276 3.916 0 2.259-.858 3.982-2.574 5.17-1.716 1.188-3.85 1.782-6.402 1.782-1.76 0-3.483-.286-5.17-.858-1.687-.572-3.102-1.371-4.246-2.398l1.804-3.608c.997.88 2.222 1.584 3.674 2.112s2.838.792 4.158.792c1.144 0 2.068-.205 2.772-.616.704-.41 1.056-1.041 1.056-1.892 0-.88-.425-1.584-1.276-2.112-.85-.528-1.877-.953-3.08-1.276a42.716 42.716 0 0 1-3.608-1.144 7.05 7.05 0 0 1-3.058-2.178c-.836-1.012-1.254-2.295-1.254-3.85 0-2.23.829-3.916 2.486-5.06 1.657-1.144 3.703-1.716 6.138-1.716zm34.936.22V251h-5.06v-4.576c-1.525 3.11-4.312 4.693-8.36 4.752-2.67 0-4.767-.807-6.292-2.42-1.525-1.613-2.288-3.813-2.288-6.6v-14.564h5.06v13.156c0 1.76.484 3.146 1.452 4.158.968 1.012 2.303 1.518 4.004 1.518 1.965-.03 3.527-.726 4.686-2.09 1.159-1.364 1.738-3.102 1.738-5.214v-11.528h5.06zM464.74 251h-5.06v-32.648h5.06V251zm19.668-5.368l1.276 3.872c-1.936 1.144-3.857 1.716-5.764 1.716s-3.476-.572-4.708-1.716c-1.232-1.144-1.848-2.845-1.848-5.104v-12.144h-3.3v-3.784h3.3v-6.424h5.016v6.424h6.908v3.784h-6.908v11.22c0 1.173.205 1.995.616 2.464.41.47 1.041.704 1.892.704.939 0 2.112-.337 3.52-1.012zm12.936-18.26c3.227 0 5.955.792 8.184 2.376l-1.848 3.74c-2.23-1.379-4.473-2.068-6.732-2.068-2.288 0-3.432.777-3.432 2.332 0 .763.425 1.393 1.276 1.892.85.499 1.885.917 3.102 1.254 1.217.337 2.435.733 3.652 1.188a7.28 7.28 0 0 1 3.102 2.222c.85 1.027 1.276 2.332 1.276 3.916 0 2.259-.858 3.982-2.574 5.17-1.716 1.188-3.85 1.782-6.402 1.782-1.76 0-3.483-.286-5.17-.858-1.687-.572-3.102-1.371-4.246-2.398l1.804-3.608c.997.88 2.222 1.584 3.674 2.112s2.838.792 4.158.792c1.144 0 2.068-.205 2.772-.616.704-.41 1.056-1.041 1.056-1.892 0-.88-.425-1.584-1.276-2.112-.85-.528-1.877-.953-3.08-1.276a42.716 42.716 0 0 1-3.608-1.144 7.05 7.05 0 0 1-3.058-2.178c-.836-1.012-1.254-2.295-1.254-3.85 0-2.23.829-3.916 2.486-5.06 1.657-1.144 3.703-1.716 6.138-1.716zM392.392 275.532c-.91 0-1.665.264-2.266.792s-.902 1.32-.902 2.376v2.772h6.116v3.784h-6.116V304h-5.016v-18.744h-3.08v-3.784h3.08v-2.288c0-2.581.792-4.569 2.376-5.962 1.584-1.393 3.476-2.09 5.676-2.09 2.053 0 3.813.543 5.28 1.628l-1.936 3.872c-.997-.733-2.068-1.1-3.212-1.1zm15.972 4.884c3.608 0 6.541 1.093 8.8 3.278 2.259 2.185 3.388 5.053 3.388 8.602 0 3.52-1.13 6.38-3.388 8.58-2.259 2.2-5.192 3.3-8.8 3.3-3.637 0-6.585-1.1-8.844-3.3-2.259-2.2-3.388-5.06-3.388-8.58 0-3.55 1.13-6.417 3.388-8.602 2.259-2.185 5.207-3.278 8.844-3.278zm0 4.356c-2.112 0-3.835.704-5.17 2.112-1.335 1.408-2.002 3.227-2.002 5.456 0 2.259.667 4.092 2.002 5.5 1.335 1.408 3.058 2.112 5.17 2.112s3.828-.704 5.148-2.112c1.32-1.408 1.98-3.241 1.98-5.5 0-2.23-.667-4.048-2.002-5.456-1.335-1.408-3.043-2.112-5.126-2.112zm38.72-4.18V304h-5.06v-4.576c-1.525 3.11-4.312 4.693-8.36 4.752-2.67 0-4.767-.807-6.292-2.42-1.525-1.613-2.288-3.813-2.288-6.6v-14.564h5.06v13.156c0 1.76.484 3.146 1.452 4.158.968 1.012 2.303 1.518 4.004 1.518 1.965-.03 3.527-.726 4.686-2.09 1.159-1.364 1.738-3.102 1.738-5.214v-11.528h5.06zm21.164-.176c2.728 0 4.862.8 6.402 2.398 1.54 1.599 2.31 3.806 2.31 6.622V304h-5.06v-13.156c0-1.76-.499-3.146-1.496-4.158-.997-1.012-2.376-1.518-4.136-1.518-1.877.03-3.41.63-4.598 1.804-1.188 1.173-1.87 2.699-2.046 4.576V304h-5.06v-23.408h5.06v4.488c1.584-3.11 4.459-4.664 8.624-4.664zm37.796-9.064V304h-5.06v-4.004c-1.73 2.816-4.473 4.224-8.228 4.224-3.344 0-6.05-1.107-8.118-3.322-2.068-2.215-3.102-5.111-3.102-8.69 0-3.52 1.027-6.373 3.08-8.558 2.053-2.185 4.737-3.278 8.052-3.278 3.755 0 6.527 1.423 8.316 4.268v-13.288h5.06zm-12.232 28.644c2.112 0 3.835-.711 5.17-2.134s2.002-3.249 2.002-5.478c0-2.259-.667-4.107-2.002-5.544-1.335-1.437-3.058-2.156-5.17-2.156s-3.835.719-5.17 2.156c-1.335 1.437-2.017 3.285-2.046 5.544.03 2.23.711 4.055 2.046 5.478s3.058 2.134 5.17 2.134zm20.856-1.188c.763 0 1.393.257 1.892.77.499.513.748 1.18.748 2.002 0 .821-.25 1.496-.748 2.024-.499.528-1.13.792-1.892.792-.763 0-1.393-.264-1.892-.792-.499-.528-.748-1.203-.748-2.024s.25-1.489.748-2.002c.499-.513 1.13-.77 1.892-.77zm8.712 0c.763 0 1.393.257 1.892.77.499.513.748 1.18.748 2.002 0 .821-.25 1.496-.748 2.024-.499.528-1.13.792-1.892.792-.763 0-1.393-.264-1.892-.792-.499-.528-.748-1.203-.748-2.024s.25-1.489.748-2.002c.499-.513 1.13-.77 1.892-.77zm8.712 0c.763 0 1.393.257 1.892.77.499.513.748 1.18.748 2.002 0 .821-.25 1.496-.748 2.024-.499.528-1.13.792-1.892.792-.763 0-1.393-.264-1.892-.792-.499-.528-.748-1.203-.748-2.024s.25-1.489.748-2.002c.499-.513 1.13-.77 1.892-.77z"/>
    </g>
</svg>
