<svg width="277" height="60" viewBox="0 0 277 60" xmlns="http://www.w3.org/2000/svg"><title>7F1E9D69-0F41-4AA9-9D76-3AD8AE0F5B9D</title><g fill="#F9F9F9" fill-rule="evenodd" opacity=".85"><path d="M98.42 37.93V22.068h1.888V37.93H98.42zm76.093 9.32v-34.5h1.89v34.5h-1.89zm-58.452-12.267l.068-.021a3.878 3.878 0 0 1-.157-1.086V22.07h1.89v15.858h-1.89l-8.237-12.732-.067.023c.106.36.159.724.159 1.085v11.624h-1.894V22.069h1.894l8.234 12.914zm9.315-3.398v6.342h-1.887V22.068h8.324c.36 0 .72.153 1.081.453l.54.452c.359.305.538.682.538 1.134v5.44c0 .455-.179.828-.539 1.133l-.539.454c-.361.302-.72.45-1.08.45h-6.438zm0-7.93v6.347h5.606c.27 0 .44-.014.517-.038a1.17 1.17 0 0 0 .314-.19c.136-.107.213-.193.237-.263.022-.068.034-.215.034-.44v-4.487c0-.227-.012-.376-.034-.444-.024-.07-.101-.154-.237-.262a1.156 1.156 0 0 0-.314-.19c-.077-.022-.247-.033-.517-.033h-5.606zm23.74-1.587h1.893v13.823c0 .452-.181.83-.54 1.133l-.54.453c-.361.302-.72.453-1.08.453h-7.653c-.36 0-.718-.151-1.08-.453l-.54-.453c-.36-.303-.54-.68-.54-1.133V22.068h1.891v13.349c0 .221.01.37.033.438.024.073.101.158.236.264.136.103.24.17.315.192.075.02.249.032.518.032h5.987c.27 0 .441-.012.516-.032.074-.022.18-.09.316-.192.134-.106.214-.191.237-.264.02-.068.031-.217.031-.438V22.068zm5.133 0h11.882v1.587h-4.997V37.93h-1.892V23.655h-4.993v-1.587zm33.73 0h8.238c.36 0 .718.153 1.079.452l.54.454c.359.302.54.68.54 1.133V35.89c0 .45-.181.83-.54 1.133l-.54.453c-.361.303-.72.453-1.08.453h-8.237c-.361 0-.718-.15-1.08-.453l-.541-.453c-.358-.304-.54-.683-.54-1.133V24.107c0-.454.182-.831.54-1.133l.54-.454c.363-.3.72-.452 1.081-.452zm8.509 13.344v-10.83a2.06 2.06 0 0 0-.034-.442c-.025-.067-.105-.152-.237-.26-.137-.104-.243-.17-.318-.19-.075-.024-.247-.037-.516-.037h-6.571c-.27 0-.441.013-.517.037-.075.02-.182.086-.316.19-.134.108-.212.193-.236.26-.021.068-.035.217-.035.443v10.83c0 .225.014.377.035.442.024.073.102.157.236.264.134.103.241.166.316.192.076.02.247.03.517.03h6.57c.27 0 .442-.01.517-.03.075-.026.18-.09.318-.192.132-.107.212-.191.237-.264.019-.065.034-.217.034-.443zm17.592-13.344h1.896v13.823c0 .452-.181.83-.544 1.133l-.537.453c-.363.302-.721.453-1.084.453h-7.65c-.359 0-.717-.151-1.08-.453l-.54-.453c-.359-.303-.54-.68-.54-1.133V22.068h1.89v13.349c0 .221.012.37.035.438.024.073.1.158.234.264.136.103.241.17.318.192.072.02.245.032.516.032h5.989c.268 0 .438-.012.513-.032.076-.022.18-.09.315-.192.137-.106.217-.191.238-.264.022-.068.031-.217.031-.438V22.068zm5.134 0h11.882v1.587H226.1V37.93h-1.891V23.655h-4.995v-1.587zm17.034 9.517v6.342h-1.89V22.068h8.324c.363 0 .721.153 1.08.453l.541.452c.362.305.542.682.542 1.134v5.44c0 .455-.18.828-.542 1.133l-.542.454c-.358.302-.716.45-1.079.45h-6.434zm0-7.93v6.347h5.605c.27 0 .44-.014.514-.038.077-.023.183-.088.315-.19.136-.107.215-.193.236-.263.023-.068.035-.215.035-.44v-4.487c0-.227-.012-.376-.035-.444-.02-.07-.1-.154-.236-.262-.132-.102-.238-.168-.315-.19-.073-.022-.245-.033-.514-.033h-5.605zm23.738-1.587h1.894v13.823c0 .452-.18.83-.542 1.133l-.54.453c-.36.302-.719.453-1.082.453h-7.651c-.359 0-.717-.151-1.08-.453l-.539-.453c-.358-.303-.539-.68-.539-1.133V22.068h1.89v13.349c0 .221.012.37.034.438.023.073.101.158.234.264.138.103.242.17.319.192.074.02.245.032.516.032h5.987c.268 0 .44-.012.515-.032a1.14 1.14 0 0 0 .314-.192c.137-.106.216-.191.24-.264.02-.068.03-.217.03-.438V22.068zm5.133 0H277v1.587h-4.996V37.93h-1.89V23.655h-4.995v-1.587zM2.688 59.206a1.76 1.76 0 0 1-1.764-1.755c0-.966.79-1.75 1.764-1.75.81 0 1.494.547 1.699 1.29l-.002.033c0 .065.018.129.047.182a1.76 1.76 0 0 1-1.744 2m4.591-7.74a1.76 1.76 0 0 1-1.764-1.755 1.76 1.76 0 0 1 1.764-1.751c.971 0 1.761.785 1.761 1.751a1.76 1.76 0 0 1-1.761 1.755m4.988-7.345a1.76 1.76 0 0 1-1.763-1.75c0-.97.791-1.756 1.763-1.756a1.76 1.76 0 0 1 1.764 1.756 1.76 1.76 0 0 1-1.764 1.75m4.59-6.945a1.759 1.759 0 0 1-1.764-1.75 1.763 1.763 0 0 1 3.492-.346.404.404 0 0 0 .03.37 1.755 1.755 0 0 1-1.758 1.726m6.383-5.49c-.971 0-1.76-.787-1.76-1.75a1.762 1.762 0 1 1 3.524 0c0 .963-.79 1.75-1.764 1.75m-4.655-6.766a1.764 1.764 0 0 1-3.492-.346c0-.967.79-1.75 1.764-1.75.96 0 1.747.768 1.759 1.722a.407.407 0 0 0-.03.374m-6.32-5.537a1.76 1.76 0 0 1-1.762-1.75 1.76 1.76 0 0 1 1.763-1.757c.972 0 1.764.786 1.764 1.757a1.76 1.76 0 0 1-1.764 1.75M7.279 12.04a1.76 1.76 0 0 1-1.764-1.752 1.763 1.763 0 0 1 3.525 0c0 .968-.79 1.752-1.761 1.752M4.427 2.823a1.764 1.764 0 0 1-3.503-.276c0-.967.79-1.755 1.764-1.755.934 0 1.699.73 1.756 1.644a.396.396 0 0 0-.017.387m.85-.571C5.13.986 4.024 0 2.712 0 1.297 0 .14 1.142.14 2.547a2.55 2.55 0 0 0 2.552 2.547c1.241 0 2.277-.88 2.51-2.048 18.712.161 34.01 11.166 35.223 25.014-.986-1.902-2.878-5.035-5.96-8.2C30.01 15.29 22.138 9.84 9.937 9.84a.357.357 0 0 0-.137.027 2.555 2.555 0 0 0-2.522-2.128 2.558 2.558 0 0 0-2.562 2.548 2.558 2.558 0 0 0 2.562 2.548 2.56 2.56 0 0 0 2.535-2.222c.04.013.08.02.124.02 11.907 0 19.583 5.304 23.928 9.753a34.805 34.805 0 0 1 5.624 7.628 50.177 50.177 0 0 0-5.977-4.574c-4.34-2.827-11.107-6.191-18.719-6.2a2.56 2.56 0 0 0-2.527-2.158 2.557 2.557 0 0 0-2.563 2.55 2.555 2.555 0 0 0 2.563 2.545c1.273 0 2.33-.93 2.524-2.145 11.37.016 21 7.704 24.456 10.84-3.831-1.367-12.984-4.37-19.84-4.498a2.555 2.555 0 0 0-2.55-2.344 2.554 2.554 0 0 0-2.563 2.544 2.557 2.557 0 0 0 2.563 2.548c1.206 0 2.22-.91 2.487-2.026 6.772.113 15.908 3.159 19.678 4.398H25.784c-.15-1.239-1.23-2.178-2.544-2.178-1.41 0-2.56 1.178-2.56 2.583 0 1.403 1.15 2.508 2.56 2.508a2.531 2.531 0 0 0 2.514-2.087h13.078c-3.873 1.648-12.822 4.344-19.488 4.457-.268-1.119-1.28-1.929-2.487-1.929a2.568 2.568 0 0 0-2.563 2.56 2.562 2.562 0 0 0 2.563 2.555 2.554 2.554 0 0 0 2.55-2.338c6.856-.132 16.009-3.132 19.84-4.5C35.79 34.262 26.16 41.95 14.79 41.965a2.557 2.557 0 0 0-2.524-2.142 2.555 2.555 0 0 0-2.563 2.548 2.554 2.554 0 0 0 2.563 2.544 2.556 2.556 0 0 0 2.527-2.156c7.612-.008 14.38-3.375 18.72-6.2a49.686 49.686 0 0 0 6.045-4.638 34.576 34.576 0 0 1-5.67 7.734c-4.346 4.458-12.03 9.778-23.951 9.778a.414.414 0 0 0-.114.017 2.56 2.56 0 0 0-2.545-2.285 2.556 2.556 0 0 0-2.562 2.546 2.559 2.559 0 0 0 2.562 2.551 2.563 2.563 0 0 0 2.511-2.066c.047.021.097.029.148.029 12.2 0 20.071-5.448 24.522-10.02 3.035-3.11 4.916-6.195 5.914-8.104-1.53 13.633-16.734 24.397-35.266 24.522a2.565 2.565 0 0 0-2.42-1.72 2.559 2.559 0 0 0-2.562 2.548C.126 58.857 1.276 60 2.688 60a2.558 2.558 0 0 0 2.561-2.55c0-.009.054-.02.054-.037C25.09 57.23 40.98 45.097 41.395 30.145v-.31c0-15.096-16.19-27.399-36.117-27.583M64.827 35.452a.407.407 0 0 0 .068-.218.37.37 0 0 0-.034-.153 1.77 1.77 0 0 1 1.739-1.413c.974 0 1.77.79 1.77 1.757 0 .966-.796 1.752-1.77 1.752-.97 0-1.757-.77-1.773-1.725zm.034-10.533a.37.37 0 0 0 .034-.153.416.416 0 0 0-.068-.22 1.761 1.761 0 0 1 1.773-1.723c.974 0 1.77.784 1.77 1.752 0 .967-.796 1.754-1.77 1.754-.86 0-1.576-.607-1.739-1.41zM79.062 57.45c0-.08.007-.164.02-.242a.359.359 0 0 0 .046-.183v-.032a1.767 1.767 0 0 1 1.706-1.292c.978 0 1.772.785 1.772 1.75 0 .97-.794 1.757-1.772 1.757a1.764 1.764 0 0 1-1.772-1.758zm-4.61-7.739c0-.964.793-1.75 1.77-1.75.978 0 1.773.786 1.773 1.75 0 .97-.795 1.756-1.773 1.756a1.764 1.764 0 0 1-1.77-1.756zm-5.014-7.339c0-.97.794-1.756 1.772-1.756.975 0 1.772.786 1.772 1.756 0 .963-.797 1.75-1.772 1.75a1.764 1.764 0 0 1-1.772-1.75zM58.41 29.934c0-.967.794-1.754 1.771-1.754.979 0 1.774.787 1.774 1.754 0 .966-.795 1.753-1.774 1.753a1.764 1.764 0 0 1-1.771-1.753zm11.028-12.305c0-.967.794-1.753 1.772-1.753.975 0 1.772.786 1.772 1.753 0 .967-.797 1.755-1.772 1.755a1.764 1.764 0 0 1-1.772-1.755zm5.013-7.343c0-.966.794-1.756 1.771-1.756.978 0 1.773.79 1.773 1.756 0 .967-.795 1.753-1.773 1.753a1.763 1.763 0 0 1-1.77-1.753zm4.634-7.463a.378.378 0 0 0 .043-.176c0-.08-.02-.15-.062-.21A1.766 1.766 0 0 1 80.834.791c.978 0 1.772.786 1.772 1.755 0 .966-.794 1.752-1.772 1.752a1.77 1.77 0 0 1-1.749-1.476zm-36.94 27.322c.416 14.951 16.281 27.084 36.161 27.27 0 .017-.025.026-.025.035A2.556 2.556 0 0 0 80.844 60a2.56 2.56 0 0 0 2.57-2.55c0-1.402-1.16-2.545-2.578-2.545-1.125 0-2.082.72-2.431 1.72-18.62-.127-33.901-10.89-35.436-24.524 1.002 1.91 2.892 4.993 5.938 8.104 4.475 4.571 12.382 10.02 24.644 10.02.05 0 .1-.008.144-.028a2.575 2.575 0 0 0 2.527 2.066c1.42 0 2.574-1.146 2.574-2.552 0-1.403-1.154-2.547-2.574-2.547a2.568 2.568 0 0 0-2.56 2.286.4.4 0 0 0-.111-.018c-11.98 0-19.7-5.316-24.068-9.778a34.638 34.638 0 0 1-5.698-7.732 50.144 50.144 0 0 0 6.077 4.637c4.361 2.825 11.163 6.193 18.808 6.201a2.563 2.563 0 0 0 2.54 2.156c1.419 0 2.574-1.14 2.574-2.544 0-1.409-1.155-2.55-2.574-2.55-1.28 0-2.342.93-2.538 2.143-11.42-.016-21.1-7.706-24.573-10.844 3.85 1.37 13.05 4.368 19.936 4.496.104 1.31 1.213 2.342 2.565 2.342a2.576 2.576 0 0 0 2.572-2.56c0-1.405-1.156-2.578-2.572-2.578a2.572 2.572 0 0 0-2.503 1.957c-6.695-.115-15.686-2.81-19.58-4.46h13.141c.234 1.238 1.276 2.079 2.523 2.079 1.418 0 2.575-1.094 2.575-2.498a2.586 2.586 0 0 0-2.575-2.573c-1.317 0-2.405.928-2.555 2.168H44.329c3.786-1.24 12.964-4.286 19.768-4.399.27 1.118 1.287 2.052 2.503 2.052a2.573 2.573 0 0 0 2.572-2.559 2.569 2.569 0 0 0-2.572-2.555c-1.352 0-2.461 1.034-2.565 2.342-6.885.133-16.086 3.132-19.936 4.501 3.473-3.138 13.153-10.828 24.573-10.844a2.567 2.567 0 0 0 2.538 2.145c1.419 0 2.574-1.143 2.574-2.548s-1.155-2.548-2.574-2.548c-1.285 0-2.35.938-2.54 2.159-7.645.008-14.447 3.376-18.808 6.2a50.166 50.166 0 0 0-6.005 4.574 34.737 34.737 0 0 1 5.65-7.627c4.365-4.45 12.081-9.753 24.044-9.753a.46.46 0 0 0 .121-.018 2.572 2.572 0 0 0 2.55 2.22c1.42 0 2.574-1.146 2.574-2.55 0-1.405-1.154-2.547-2.574-2.547-1.275 0-2.33.922-2.534 2.127a.41.41 0 0 0-.137-.025c-12.262 0-20.169 5.448-24.644 10.018-3.098 3.165-4.999 6.298-5.987 8.202C44.139 14.213 59.51 3.207 78.312 3.046a2.57 2.57 0 0 0 2.523 2.048c1.42 0 2.576-1.142 2.576-2.547C83.41 1.143 82.26 0 80.84 0c-1.318 0-2.36.986-2.508 2.25-20.025.183-36.188 12.488-36.188 27.585v.31z"/></g></svg>