<?xml version="1.0" standalone="no"?>
<svg xmlns="http://www.w3.org/2000/svg" xmlns:xlink="http://www.w3.org/1999/xlink" style="isolation:isolate" viewBox="0 0 104 85" width="104" height="85">
  <path d=" M 104 10.03 Q 99.579 16.497 93.31 21.051 Q 93.376 21.975 93.376 23.822 Q 93.376 32.401 90.868 40.947 Q 88.36 49.492 83.246 57.345 Q 78.132 65.198 71.071 71.236 Q 64.01 77.274 54.046 80.871 Q 44.081 84.467 32.731 84.467 Q 14.848 84.467 0 74.898 Q 2.31 75.162 5.147 75.162 Q 19.995 75.162 31.609 66.056 Q 24.68 65.924 19.203 61.799 Q 13.726 57.675 11.68 51.274 Q 13.858 51.604 15.706 51.604 Q 18.543 51.604 21.315 50.878 Q 13.924 49.36 9.074 43.52 Q 4.223 37.68 4.223 29.959 L 4.223 29.695 Q 8.711 32.203 13.858 32.401 Q 9.503 29.497 6.929 24.812 Q 4.355 20.127 4.355 14.65 Q 4.355 8.843 7.259 3.893 Q 15.244 13.726 26.693 19.632 Q 38.142 25.538 51.208 26.198 Q 50.68 23.69 50.68 21.315 Q 50.68 12.472 56.916 6.236 Q 63.152 0 71.995 0 Q 81.234 0 87.569 6.731 Q 94.761 5.345 101.096 1.584 Q 98.655 9.173 91.726 13.33 Q 97.863 12.67 104 10.03 Z " fill="#fff"/>
</svg>
